<svg width="55" height="55" viewBox="0 0 55 55" fill="none" xmlns="http://www.w3.org/2000/svg">
<path d="M6.86011 16.0066V41.1599M6.86011 32.0133H48.0201M48.0201 41.1599V22.8666C48.0201 21.6537 47.5383 20.4904 46.6806 19.6328C45.8229 18.7751 44.6597 18.2933 43.4468 18.2933H25.1534V32.0133M13.7201 22.8666C13.7201 23.4731 13.961 24.0547 14.3899 24.4835C14.8187 24.9123 15.4003 25.1533 16.0068 25.1533C16.6132 25.1533 17.1949 24.9123 17.6237 24.4835C18.0525 24.0547 18.2934 23.4731 18.2934 22.8666C18.2934 22.2601 18.0525 21.6785 17.6237 21.2497C17.1949 20.8208 16.6132 20.5799 16.0068 20.5799C15.4003 20.5799 14.8187 20.8208 14.3899 21.2497C13.961 21.6785 13.7201 22.2601 13.7201 22.8666Z" stroke="#00A63E" stroke-width="4" stroke-linecap="round" stroke-linejoin="round"/>
</svg>
