<svg width="55" height="55" viewBox="0 0 55 55" fill="none" xmlns="http://www.w3.org/2000/svg">
<path d="M27.4399 16.0068C27.4399 13.5809 26.4762 11.2544 24.7609 9.5391C23.0456 7.82377 20.7191 6.86011 18.2932 6.86011H4.57324V41.1601H20.5799C22.3993 41.1601 24.1442 41.8829 25.4307 43.1694C26.7172 44.4559 27.4399 46.2007 27.4399 48.0201M27.4399 16.0068V48.0201M27.4399 16.0068C27.4399 13.5809 28.4036 11.2544 30.1189 9.5391C31.8342 7.82377 34.1607 6.86011 36.5866 6.86011H50.3066V41.1601H34.2999C32.4805 41.1601 30.7357 41.8829 29.4492 43.1694C28.1627 44.4559 27.4399 46.2007 27.4399 48.0201" stroke="#00A63E" stroke-width="4" stroke-linecap="round" stroke-linejoin="round"/>
</svg>
