<svg width="21" height="19" viewBox="0 0 21 19" fill="none" xmlns="http://www.w3.org/2000/svg">
<path d="M11 8.4787H18.5C18.8978 8.4787 19.2794 8.32066 19.5607 8.03936C19.842 7.75805 20 7.37652 20 6.9787C20 6.58087 19.842 6.19934 19.5607 5.91804C19.2794 5.63673 18.8978 5.4787 18.5 5.4787H10L11.47 4.0087C11.7641 3.71424 11.9514 3.32995 12.0022 2.91686C12.0529 2.50377 11.9641 2.08558 11.75 1.7287C11.5491 1.39365 11.2255 1.15018 10.8478 1.05008C10.4702 0.949982 10.0685 1.00115 9.728 1.1927C6.388 3.0717 4.479 4.1667 4 4.4787C3.89983 4.54378 3.79983 4.60911 3.7 4.6747C2.87013 5.22121 2.18898 5.96528 1.71771 6.84008C1.24645 7.71489 0.999832 8.69304 1 9.6867V9.4787V11.4787C1 13.07 1.63214 14.5961 2.75736 15.7213C3.88258 16.8466 5.4087 17.4787 7 17.4787H11.5C11.8978 17.4787 12.2794 17.3207 12.5607 17.0394C12.842 16.7581 13 16.3765 13 15.9787C13 15.5809 12.842 15.1993 12.5607 14.918C12.2794 14.6367 11.8978 14.4787 11.5 14.4787M11.5 8.4787H13.5C13.697 8.4787 13.892 8.5175 14.074 8.59288C14.256 8.66826 14.4214 8.77875 14.5607 8.91804C14.6999 9.05733 14.8104 9.22269 14.8858 9.40467C14.9612 9.58666 15 9.78172 15 9.9787C15 10.1757 14.9612 10.3707 14.8858 10.5527C14.8104 10.7347 14.6999 10.9001 14.5607 11.0394C14.4214 11.1786 14.256 11.2891 14.074 11.3645C13.892 11.4399 13.697 11.4787 13.5 11.4787H11M12.5 11.4787C12.8978 11.4787 13.2794 11.6367 13.5607 11.918C13.842 12.1993 14 12.5809 14 12.9787C14 13.3765 13.842 13.7581 13.5607 14.0394C13.2794 14.3207 12.8978 14.4787 12.5 14.4787H11" stroke="#008236" stroke-width="2" stroke-linecap="round" stroke-linejoin="round"/>
</svg>
