<svg width="46" height="42" viewBox="0 0 46 42" fill="none" xmlns="http://www.w3.org/2000/svg">
<path d="M40.0463 21.914L22.8963 38.8994L5.74634 21.914C4.61514 20.8132 3.72411 19.4902 3.12936 18.0281C2.53461 16.5661 2.24902 14.9967 2.29059 13.4189C2.33215 11.8411 2.69996 10.2889 3.37085 8.8602C4.04175 7.4315 5.0012 6.15717 6.18878 5.11749C7.37636 4.0778 8.76635 3.29526 10.2712 2.81916C11.7761 2.34306 13.3632 2.1837 14.9327 2.35112C16.5022 2.51855 18.02 3.00913 19.3906 3.79197C20.7612 4.5748 21.9548 5.63295 22.8963 6.89976C23.842 5.64214 25.037 4.59325 26.4066 3.81872C27.7762 3.04418 29.291 2.56069 30.8561 2.3985C32.4212 2.23631 34.0029 2.39891 35.5022 2.87612C37.0016 3.35334 38.3863 4.13489 39.5697 5.17187C40.7531 6.20885 41.7097 7.47894 42.3797 8.90263C43.0497 10.3263 43.4186 11.873 43.4633 13.4458C43.5081 15.0186 43.2277 16.5838 42.6397 18.0433C42.0518 19.5027 41.1689 20.8252 40.0463 21.9277" stroke="#00A63E" stroke-width="4.57333" stroke-linecap="round" stroke-linejoin="round"/>
</svg>
