<svg width="6" height="71" viewBox="0 0 6 71" fill="none" xmlns="http://www.w3.org/2000/svg">
<path d="M5.96488 33.5942C5.98105 34.2248 5.99341 34.8586 5.99722 35.4923H5.86693C5.86979 35.0247 5.86693 34.5386 5.84126 34.0772C5.80702 33.4404 5.77184 32.7943 5.70812 32.1944C5.59115 31.0962 5.3962 30.204 5.17083 29.3764C4.72007 27.7244 4.28357 26.014 3.84233 24.325C3.82045 24.242 3.81189 24.1066 3.80714 24.0789C3.56084 25.0172 3.33926 25.8632 3.1272 26.6723C3.3735 27.6383 3.62836 28.6443 3.88417 29.6441C4.17802 30.7885 4.47757 31.9114 4.76476 33.0804C4.92548 33.7357 5.0025 34.6155 4.9987 35.4923H4.87317C4.87603 34.5109 4.76571 33.5634 4.55365 32.9727C4.33302 33.8126 4.13522 34.6494 3.91365 35.4923H3.69207C3.94788 34.5171 4.18182 33.5357 4.43668 32.5667C4.21701 31.7299 3.99258 30.8746 3.77195 30.0348C3.29457 31.8529 2.84001 33.6711 2.36262 35.4923H2.13724L2.12298 35.4431C1.91377 34.6463 1.70455 33.8526 1.49724 33.0558C1.46015 32.9143 1.43543 32.8805 1.40595 33.0835C1.39359 33.1666 1.36981 33.2281 1.35174 33.2988C1.20149 33.8834 1.13112 34.6002 1.12351 35.4C1.12351 35.4339 1.12541 35.4615 1.12541 35.4954H0.99323C0.990377 34.9386 1.02556 34.3756 1.09974 33.8095C1.16155 33.3388 1.2614 32.9389 1.34033 32.5205C1.11971 31.6776 0.89528 30.8193 0.662293 29.9302C0.594775 30.2594 0.522501 30.5978 0.454031 30.9516C0.202025 32.2529 0.135458 33.7665 0.124046 35.3293C0.124046 35.3846 0.125948 35.4431 0.125948 35.4985H0.000420348C0.000420348 34.9478 0.00612622 34.4002 0.0194398 33.8557C0.0508217 32.5667 0.175398 31.4038 0.394121 30.4009C0.451179 30.1363 0.51204 29.8841 0.56054 29.6718C0.437865 28.9981 0.302828 28.3551 0.195369 27.6506C0.0745959 26.8569 0.0260965 25.9617 0.0165868 25.0449C0.00993002 24.3804 -0.00243255 23.7159 0.000420348 23.0514C0.00802808 21.2794 0.126899 19.6581 0.454031 18.3291C0.495874 18.1599 0.532011 17.9723 0.573853 17.7785C0.392219 17.1293 0.250525 16.3479 0.146869 15.4712C0.06889 14.8097 0.0260965 14.1052 0.0175378 13.3792C0.00802811 12.6378 -0.0033835 11.8933 0.00137134 11.1519C0.0080281 10.0506 0.0479687 8.95537 0.190614 7.98323C0.29522 7.27259 0.43311 6.63577 0.559589 5.94666C0.377003 5.17756 0.187761 4.31617 0.105978 3.21483C0.0622332 2.63031 0.0356062 2.02119 0.0203907 1.41822C0.00897914 0.950605 0.00422426 0.479917 0.00232232 0.00922917H0.124997C0.123095 0.326097 0.132605 0.646042 0.141163 0.959834C0.153526 1.3936 0.164938 1.83045 0.188712 2.25807C0.262887 3.57784 0.439767 4.70688 0.682263 5.65748C1.18723 7.63868 1.7055 9.5768 2.20476 11.4811C2.43394 10.6074 2.66027 9.74293 2.89611 8.84462C2.879 8.79232 2.85237 8.72464 2.82955 8.6385C2.33029 6.74037 1.82913 4.85454 1.33653 2.9318C1.23287 2.52572 1.14824 2.01811 1.08357 1.50435C1.02271 1.01829 0.99323 0.513757 0.99323 0.00922917H1.12446C1.12446 0.0492222 1.12161 0.0830625 1.12161 0.119979C1.12161 1.08597 1.23382 1.85814 1.40215 2.5411C1.44304 2.7103 1.46966 2.62416 1.502 2.50111C1.7017 1.73508 1.90235 0.975216 2.10206 0.209195C2.11157 0.172278 2.11727 0.123056 2.12108 0.101521L2.13724 0.00922917H2.36262C2.0916 1.03674 1.82247 2.0581 1.55145 3.0887C1.77017 3.91932 1.9927 4.7684 2.21807 5.62672C2.71258 3.73781 3.20328 1.86429 3.69207 0H3.91365C3.90604 0.0307639 3.89748 0.0615278 3.88987 0.0922917C4.10479 0.913688 4.32542 1.75662 4.5508 2.61493C4.77808 1.93813 4.88173 0.96291 4.87508 0H4.99775C4.9987 0.424542 4.98063 0.849084 4.94259 1.27363C4.88268 1.95043 4.77998 2.52264 4.65255 2.9964C4.88078 3.86702 5.10616 4.72534 5.33534 5.59903C5.65392 4.38078 5.82984 2.8795 5.85742 1.14442C5.86313 0.762945 5.86598 0.381472 5.86598 0H5.99626C5.99912 0.261493 6.00197 0.51991 5.99817 0.778327C5.98485 1.88275 5.95632 2.99948 5.80892 3.98085C5.70242 4.68842 5.56548 5.33138 5.43805 6.02357C5.51603 6.39581 5.61588 6.82036 5.70051 7.28797C5.84601 8.10013 5.94491 8.99537 5.96393 9.98904C5.98105 10.8689 6.00387 11.7549 5.99626 12.6378C5.98485 13.9699 5.92304 15.2743 5.71763 16.4033C5.62919 16.8894 5.52744 17.3385 5.42949 17.8123C5.64155 18.686 5.8365 19.6427 5.91353 20.8641C5.94586 21.3717 5.96774 21.8916 5.9801 22.4115C5.99436 23.0391 6.00387 23.6728 5.99722 24.3035C5.98675 25.4325 5.95727 26.5708 5.81083 27.5737C5.71953 28.1982 5.59496 28.7581 5.47704 29.3211C5.43329 29.5303 5.42093 29.6318 5.47609 29.8471C5.74331 30.8931 5.92399 32.1206 5.96203 33.5942H5.96488ZM3.10533 3.07331C3.325 3.90702 3.54562 4.73764 3.7634 5.57442C4.09814 6.86343 4.43763 8.13398 4.76191 9.4599C5.00346 10.4505 5.04435 11.6595 4.95496 12.9516C4.90265 13.7053 4.77713 14.2868 4.6554 14.8313C4.88078 15.6927 5.10331 16.5387 5.33915 17.437C5.36102 17.3324 5.3886 17.2032 5.41617 17.074C5.44375 16.9478 5.47133 16.8217 5.49891 16.6925C5.73665 15.545 5.84316 14.216 5.86123 12.7732C5.86883 12.204 5.86883 11.6318 5.86123 11.0658C5.85552 10.632 5.84031 10.1921 5.81463 9.76754C5.71858 8.19858 5.4932 6.93726 5.18889 5.82668C4.70961 4.07929 4.24458 2.27038 3.77956 0.510681C3.56464 1.33208 3.33926 2.18731 3.10818 3.07024L3.10533 3.07331ZM4.5565 9.37068C4.33302 10.2259 4.1105 11.075 3.88607 11.9333C3.98972 12.324 4.10289 12.7424 4.21225 13.1731C4.32161 13.6038 4.42622 14.0468 4.53178 14.4836C4.96827 13.2377 5.00346 10.6135 4.55555 9.37068H4.5565ZM3.00738 8.44777C3.21944 7.63868 3.44007 6.79882 3.65213 5.98665C3.43531 5.15911 3.21374 4.3131 3.00262 3.50708C2.78675 4.33156 2.56423 5.17756 2.35596 5.97127C2.57088 6.78959 2.79341 7.6356 3.00643 8.44777H3.00738ZM1.56001 14.8344C1.78158 15.6773 2.00601 16.5356 2.22949 17.3878C2.96934 14.5698 3.70824 11.7518 4.43097 8.99536C4.20845 8.14628 3.98212 7.28489 3.76149 6.44196C3.03115 9.22609 2.2913 12.0441 1.56001 14.8344ZM2.35692 17.6216C2.31793 17.7692 2.33599 17.8646 2.36738 17.9784C2.49385 18.4553 2.62033 18.9352 2.74586 19.4182C2.82955 19.7412 2.91133 20.0673 2.98075 20.3442C3.21469 19.4551 3.43626 18.6091 3.66069 17.7569C3.45053 16.9263 3.2318 16.0618 3.00262 15.1574C2.782 16.0034 2.57088 16.8155 2.35787 17.6216H2.35692ZM1.40595 9.46913C1.39359 9.55527 1.36981 9.61372 1.35174 9.68448C1.20149 10.269 1.13207 10.9858 1.12351 11.7857C1.11305 12.8778 1.23287 13.7545 1.44018 14.4344C1.66746 13.57 1.89189 12.7116 2.12393 11.8287C1.91472 11.035 1.7055 10.2413 1.49724 9.44452C1.46015 9.303 1.43543 9.26916 1.40595 9.47221V9.46913ZM0.815399 17.9692C1.26806 19.6458 1.71026 21.3655 2.15721 23.0668C2.17908 23.1498 2.20286 23.2298 2.23044 23.3313C2.44726 22.5038 2.65837 21.6916 2.87234 20.8856C2.91228 20.7349 2.88946 20.6395 2.85998 20.5288C2.60702 19.5905 2.35216 18.6583 2.10301 17.7077C1.81867 16.6217 1.52957 15.5512 1.2595 14.4129C0.998935 13.3146 0.939024 11.9979 1.05219 10.5828C1.10544 9.92443 1.22527 9.42914 1.35079 8.94922C1.11971 8.06629 0.89528 7.20798 0.656587 6.29737C0.56054 6.8142 0.455933 7.32181 0.368445 7.86941C0.175398 9.06612 0.132605 10.4167 0.124046 11.7826C0.120242 12.3179 0.144016 12.8562 0.156379 13.3946C0.174447 14.2006 0.242917 14.9574 0.339915 15.6588C0.460688 16.5325 0.627107 17.2801 0.814448 17.9723L0.815399 17.9692ZM1.43733 21.1379C1.0151 22.5838 1.01225 24.7988 1.43733 26.2631C1.66746 25.3864 1.89189 24.5311 2.10966 23.7005C1.88999 22.8607 1.66366 22.0023 1.43828 21.141L1.43733 21.1379ZM2.82955 32.2467C2.34931 30.4193 1.87097 28.5858 1.38978 26.7646C1.19579 26.0293 1.04648 25.2264 1.01225 24.1466C0.986573 23.3467 1.00844 22.593 1.11495 21.9008C1.16726 21.5655 1.23858 21.2702 1.30515 20.9718C1.34033 20.8149 1.35079 20.7164 1.30515 20.5441C1.09403 19.7566 0.886721 18.9536 0.67846 18.1599C0.427404 18.9536 0.222947 20.4365 0.176349 21.6393C0.14782 22.3777 0.136409 23.1252 0.123095 23.8728C0.119291 24.1004 0.132605 24.3312 0.139262 24.5619C0.152575 24.9864 0.15733 25.4171 0.182055 25.8324C0.259083 27.1184 0.42265 28.2536 0.660391 29.1888C1.17106 31.1977 1.69599 33.1543 2.20381 35.0924C2.43299 34.2218 2.65932 33.3604 2.89421 32.4651C2.87614 32.4067 2.85047 32.3359 2.82859 32.2498L2.82955 32.2467ZM2.99406 27.1122C2.782 27.9213 2.56137 28.7642 2.34741 29.5795C2.56423 30.407 2.78675 31.253 2.99882 32.0652C3.21564 31.2407 3.43721 30.3947 3.64738 29.5949C3.43246 28.7766 3.20993 27.9305 2.99501 27.1122H2.99406ZM4.44143 20.7656C4.21605 19.9073 3.99068 19.0459 3.77766 18.2368C3.0321 21.0117 2.27989 23.8082 1.53053 26.5954C1.77302 27.5183 1.99745 28.3735 2.22093 29.2257C2.96268 26.3985 3.70634 23.5651 4.44048 20.7687L4.44143 20.7656ZM4.5565 26.2139C4.97302 24.9557 4.99299 22.5807 4.56506 21.144C4.33493 22.0177 4.10955 22.873 3.89558 23.6913C4.1124 24.5188 4.33397 25.3648 4.55745 26.2139H4.5565ZM5.3477 29.2534C5.4409 28.7519 5.54456 28.2536 5.63204 27.7152C5.8346 26.4785 5.86313 25.0695 5.87454 23.6667C5.8793 23.0606 5.84982 22.4423 5.82509 21.8362C5.76708 20.418 5.5902 19.2028 5.33249 18.1907C4.83989 16.2526 4.33397 14.3667 3.83282 12.4594C3.81285 12.3855 3.79288 12.3117 3.77005 12.2287C3.55989 13.0316 3.36019 13.813 3.15478 14.5729C3.09772 14.7821 3.10247 14.899 3.15668 15.102C3.65308 16.9786 4.14663 18.8644 4.64019 20.7502C4.69724 20.9687 4.7543 21.1933 4.8028 21.4394C5.00916 22.5007 5.04815 23.6605 4.93974 24.9095C4.88173 25.5771 4.77808 26.1339 4.65445 26.6046C4.88268 27.4752 5.10806 28.3305 5.3477 29.2472V29.2534ZM3.84233 59.8204C3.82045 59.7373 3.81189 59.602 3.80714 59.5743C3.56084 60.5126 3.33926 61.3586 3.1272 62.1677C3.3735 63.1337 3.62836 64.1397 3.88417 65.1395C4.17802 66.2839 4.47757 67.4068 4.76476 68.5758C4.92548 69.2311 5.0025 70.1109 4.9987 70.9877H4.87317C4.87603 70.0063 4.76571 69.0588 4.55365 68.4681C4.33302 69.308 4.13522 70.1448 3.91365 70.9877H3.69207C3.94788 70.0125 4.18182 69.0311 4.43668 68.0621C4.21701 67.2253 3.99258 66.37 3.77195 65.5302C3.29457 67.3483 2.84001 69.1665 2.36262 70.9877H2.13724L2.12298 70.9385C1.91377 70.1417 1.70455 69.348 1.49724 68.5512C1.46015 68.4097 1.43543 68.3758 1.40595 68.5789C1.39359 68.6619 1.36981 68.7235 1.35174 68.7942C1.20149 69.3787 1.13112 70.0955 1.12351 70.8954C1.12351 70.9292 1.12541 70.9569 1.12541 70.9908H0.99323C0.990377 70.4339 1.02556 69.871 1.09974 69.3049C1.16155 68.8342 1.2614 68.4343 1.34033 68.0159C1.11971 67.173 0.89528 66.3147 0.662293 65.4256C0.594775 65.7548 0.522501 66.0932 0.454031 66.447C0.202025 67.7483 0.135458 69.2618 0.124046 70.8247C0.124046 70.88 0.125948 70.9385 0.125948 70.9939H0.000420348C0.000420348 70.4432 0.00612622 69.8956 0.0194398 69.3511C0.0508217 68.062 0.175398 66.8992 0.394121 65.8963C0.451179 65.6317 0.51204 65.3794 0.56054 65.1672C0.437865 64.4934 0.302828 63.8505 0.195369 63.146C0.0745959 62.3523 0.0260965 61.457 0.0165868 60.5403C0.00993002 59.8758 -0.00243255 59.2113 0.000420348 58.5468C0.00802808 56.7748 0.126899 55.1535 0.454031 53.8245C0.495874 53.6553 0.532011 53.4677 0.573853 53.2738C0.392219 52.6247 0.250525 51.8433 0.146869 50.9666C0.06889 50.3051 0.0260965 49.6006 0.0175378 48.8746C0.00802811 48.1332 -0.0033835 47.3887 0.00137134 46.6473C0.0080281 45.546 0.0479687 44.4508 0.190614 43.4786C0.29522 42.768 0.43311 42.1312 0.559589 41.4421C0.377003 40.673 0.187761 39.8116 0.105978 38.7102C0.0622332 38.1257 0.0356062 37.5166 0.0203907 36.9136C0.00897914 36.446 0.00422426 35.9753 0.00232232 35.5046H0.124997C0.123095 35.8215 0.132605 36.1414 0.141163 36.4552C0.153526 36.889 0.164938 37.3258 0.188712 37.7535C0.262887 39.0732 0.439767 40.2023 0.682263 41.1529C1.18723 43.1341 1.7055 45.0722 2.20476 46.9765C2.43394 46.1028 2.66027 45.2383 2.89611 44.34C2.879 44.2877 2.85237 44.22 2.82955 44.1339C2.33029 42.2358 1.82913 40.3499 1.33653 38.4272C1.23287 38.0211 1.14824 37.5135 1.08357 36.9997C1.02271 36.5137 0.99323 36.0091 0.99323 35.5046H1.12446C1.12446 35.5446 1.12161 35.5784 1.12161 35.6154C1.12161 36.5814 1.23382 37.3535 1.40215 38.0365C1.44304 38.2057 1.46966 38.1195 1.502 37.9965C1.7017 37.2305 1.90235 36.4706 2.10206 35.7046C2.11157 35.6677 2.11727 35.6184 2.12108 35.5969L2.13724 35.5046H2.36262C2.0916 36.5321 1.82247 37.5535 1.55145 38.5841C1.77017 39.4147 1.9927 40.2638 2.21807 41.1221C2.71163 39.2424 3.20232 37.3689 3.69207 35.5077H3.91365C3.90604 35.5385 3.89748 35.5692 3.88987 35.6C4.10479 36.4214 4.32542 37.2643 4.5508 38.1226C4.77808 37.4458 4.88173 36.4706 4.87508 35.5077H4.99775C4.9987 35.9322 4.98063 36.3568 4.94259 36.7813C4.88268 37.4581 4.77998 38.0303 4.65255 38.5041C4.88078 39.3747 5.10616 40.233 5.33534 41.1067C5.65392 39.8885 5.82984 38.3872 5.85742 36.6521C5.86313 36.2706 5.86598 35.8892 5.86598 35.5077H5.99626C5.99912 35.7692 6.00197 36.0276 5.99817 36.286C5.98485 37.3904 5.95632 38.5072 5.80892 39.4885C5.70242 40.1961 5.56548 40.8391 5.43805 41.5313C5.51603 41.9035 5.61588 42.328 5.70051 42.7957C5.84601 43.6078 5.94491 44.5031 5.96393 45.4967C5.98105 46.3766 6.00387 47.2626 5.99626 48.1455C5.98485 49.4776 5.92304 50.782 5.71763 51.911C5.62919 52.3971 5.52744 52.8462 5.42949 53.32C5.64155 54.1937 5.8365 55.1504 5.91353 56.3718C5.94586 56.8794 5.96774 57.3993 5.9801 57.9192C5.99436 58.5468 6.00387 59.1805 5.99722 59.8112C5.98675 60.9402 5.95727 62.0785 5.81083 63.0814C5.71953 63.7059 5.59496 64.2658 5.47704 64.8288C5.43329 65.038 5.42093 65.1395 5.47609 65.3548C5.74331 66.4008 5.92399 67.6283 5.96203 69.1019C5.9782 69.7325 5.99056 70.3663 5.99436 71H5.86408C5.86693 70.5324 5.86408 70.0463 5.8384 69.5849C5.80417 68.9481 5.76898 68.302 5.70527 67.7021C5.5883 66.6038 5.39335 65.7117 5.16797 64.8841C4.71721 63.2321 4.28072 61.5216 3.83947 59.8327L3.84233 59.8204ZM3.83377 47.9578C3.8138 47.884 3.79383 47.8102 3.771 47.7271C3.56084 48.5301 3.36114 49.3115 3.15573 50.0713C3.09867 50.2805 3.10342 50.3974 3.15763 50.6005C3.65403 52.4771 4.14758 54.3629 4.64114 56.2487C4.69819 56.4671 4.75525 56.6917 4.80375 56.9378C5.01011 57.9992 5.0491 59.159 4.94069 60.408C4.88268 61.0756 4.77903 61.6324 4.6554 62.1031C4.88363 62.9737 5.10901 63.8289 5.34866 64.7457C5.44185 64.2443 5.54551 63.7459 5.633 63.2075C5.83555 61.9708 5.86408 60.5618 5.87549 59.159C5.88025 58.5529 5.85077 57.9346 5.82604 57.3285C5.76803 55.9103 5.59115 54.6951 5.33344 53.683C4.84084 51.7449 4.33493 49.8591 3.83377 47.9517V47.9578ZM3.00262 50.6497C2.782 51.4957 2.57088 52.3079 2.35787 53.1139C2.31888 53.2615 2.33695 53.3569 2.36833 53.4707C2.49481 53.9476 2.62128 54.4275 2.74681 54.9105C2.8305 55.2335 2.91228 55.5596 2.9817 55.8365C3.21564 54.9474 3.43721 54.1014 3.66164 53.2492C3.45148 52.4186 3.23276 51.5541 3.00357 50.6497H3.00262ZM4.21225 48.6685C4.32161 49.0992 4.42622 49.5453 4.53178 49.979C4.96827 48.7331 5.00346 46.1089 4.55555 44.8661C4.33207 45.7213 4.10955 46.5704 3.88512 47.4287C3.98877 47.8194 4.10194 48.2378 4.2113 48.6685H4.21225ZM3.10533 38.5656C3.325 39.3993 3.54562 40.23 3.7634 41.0667C4.09814 42.3557 4.43763 43.6263 4.76191 44.9522C5.00346 45.9428 5.04435 47.1518 4.95496 48.4439C4.90265 49.1976 4.77713 49.7791 4.6554 50.3236C4.88078 51.185 5.10331 52.031 5.33915 52.9293C5.36102 52.8247 5.3886 52.6955 5.41617 52.5663C5.44375 52.4401 5.47133 52.314 5.49891 52.1848C5.73665 51.0373 5.84316 49.7083 5.86123 48.2655C5.86883 47.6964 5.86883 47.1241 5.86123 46.5581C5.85552 46.1243 5.84031 45.6844 5.81463 45.2598C5.71858 43.6909 5.4932 42.4296 5.18889 41.319C4.70961 39.5716 4.24458 37.7627 3.77956 36.003C3.56464 36.8244 3.33926 37.6796 3.10818 38.5625L3.10533 38.5656ZM3.00738 43.9401C3.21944 43.131 3.44007 42.2911 3.65213 41.479C3.43531 40.6514 3.21374 39.8054 3.00262 38.9994C2.78675 39.8239 2.56423 40.6699 2.35596 41.4636C2.57088 42.2819 2.79341 43.1279 3.00643 43.9401H3.00738ZM1.56001 50.3267C1.78158 51.1696 2.00601 52.0279 2.22949 52.8801C2.96934 50.0621 3.70824 47.2441 4.43097 44.4877C4.20845 43.6386 3.98212 42.7772 3.76149 41.9343C3.03115 44.7184 2.2913 47.5364 1.56001 50.3267ZM1.40595 44.9645C1.39359 45.0507 1.36981 45.1091 1.35174 45.1799C1.20149 45.7644 1.13207 46.4812 1.12351 47.281C1.11305 48.3732 1.23287 49.2499 1.44018 49.9298C1.66746 49.0653 1.89189 48.207 2.12393 47.3241C1.91472 46.5304 1.7055 45.7367 1.49724 44.9399C1.46015 44.7984 1.43543 44.7645 1.40595 44.9676V44.9645ZM0.815399 53.4615C1.26806 55.1381 1.71026 56.8578 2.15721 58.5591C2.17908 58.6421 2.20286 58.7221 2.23044 58.8237C2.44726 57.9961 2.65837 57.1839 2.87234 56.3779C2.91228 56.2272 2.88946 56.1318 2.85998 56.0211C2.60702 55.0828 2.35216 54.1506 2.10301 53.2C1.81867 52.114 1.52957 51.0435 1.2595 49.9052C0.998935 48.8069 0.939024 47.4902 1.05219 46.0751C1.10544 45.4167 1.22527 44.9214 1.35079 44.4415C1.11971 43.5586 0.89528 42.7003 0.656587 41.7897C0.56054 42.3065 0.455933 42.8141 0.368445 43.3617C0.175398 44.5584 0.132605 45.909 0.124046 47.2749C0.120242 47.8102 0.144016 48.3485 0.156379 48.8869C0.174447 49.6929 0.242917 50.4497 0.339915 51.1511C0.460688 52.0248 0.627107 52.7724 0.814448 53.4646L0.815399 53.4615ZM1.43733 56.6302C1.0151 58.0761 1.01225 60.2911 1.43733 61.7555C1.66746 60.8787 1.89189 60.0234 2.10966 59.1928C1.88999 58.353 1.66366 57.4947 1.43828 56.6333L1.43733 56.6302ZM2.82955 67.7421C2.34931 65.9147 1.87097 64.0812 1.38978 62.26C1.19579 61.5247 1.04648 60.7218 1.01225 59.642C0.986573 58.8421 1.00844 58.0884 1.11495 57.3962C1.16726 57.0609 1.23858 56.7655 1.30515 56.4671C1.34033 56.3102 1.35079 56.2118 1.30515 56.0395C1.09403 55.252 0.886721 54.449 0.67846 53.6553C0.427404 54.449 0.222947 55.9318 0.176349 57.1347C0.14782 57.8731 0.136409 58.6206 0.123095 59.3682C0.119291 59.5958 0.132605 59.8266 0.139262 60.0573C0.152575 60.4818 0.15733 60.9125 0.182055 61.3278C0.259083 62.6138 0.42265 63.749 0.660391 64.6842C1.17106 66.6931 1.69599 68.6496 2.20381 70.5878C2.43299 69.7171 2.65932 68.8558 2.89421 67.9605C2.87614 67.9021 2.85047 67.8313 2.82859 67.7452L2.82955 67.7421ZM2.99406 62.6076C2.782 63.4167 2.56137 64.2596 2.34741 65.0749C2.56423 65.9024 2.78675 66.7484 2.99882 67.5606C3.21564 66.7361 3.43721 65.8901 3.64738 65.0903C3.43246 64.2719 3.20993 63.4259 2.99501 62.6076H2.99406ZM4.44143 56.2579C4.21605 55.3996 3.99068 54.5382 3.77766 53.7291C3.0321 56.5041 2.27989 59.3005 1.53053 62.0877C1.77302 63.0106 1.99745 63.8659 2.22093 64.718C2.96268 61.8908 3.70634 59.0575 4.44048 56.261L4.44143 56.2579ZM4.5565 61.7062C4.97302 60.448 4.99299 58.073 4.56506 56.6363C4.33493 57.51 4.10955 58.3653 3.89558 59.1836C4.1124 60.0111 4.33397 60.8571 4.55745 61.7062H4.5565Z" fill="#078128"/>
</svg>
