<svg width="54" height="54" viewBox="0 0 54 54" fill="none" xmlns="http://www.w3.org/2000/svg">
<g clip-path="url(#clip0_67_236)">
<path d="M26.5987 53.1965C41.2886 53.1965 53.197 41.2881 53.197 26.5983C53.197 11.9084 41.2886 0 26.5987 0C11.9089 0 0.000488281 11.9084 0.000488281 26.5983C0.000488281 41.2881 11.9089 53.1965 26.5987 53.1965Z" fill="#55ACEE"/>
<path d="M42.8911 19.1154C41.7513 19.6209 40.5252 19.9627 39.2393 20.1154C40.5522 19.3288 41.5597 18.0842 42.0353 16.5987C40.8068 17.3274 39.4456 17.8561 37.998 18.1411C36.8383 16.9059 35.1859 16.134 33.3562 16.134C29.8457 16.134 26.9985 18.9812 26.9985 22.4918C26.9985 22.9901 27.0549 23.4751 27.1639 23.9407C21.8801 23.6757 17.1952 21.1447 14.0592 17.2971C13.512 18.2359 13.1982 19.3288 13.1982 20.4937C13.1982 22.699 14.3214 24.6458 16.0264 25.7856C14.9847 25.7529 14.0037 25.467 13.147 24.9895C13.1465 25.0166 13.1465 25.0436 13.1465 25.0701C13.1465 28.1506 15.3389 30.72 18.2468 31.3036C17.7139 31.4497 17.1511 31.527 16.5721 31.527C16.1615 31.527 15.7637 31.4876 15.3759 31.4136C16.1848 33.9389 18.5322 35.7771 21.315 35.8288C19.1387 37.5343 16.3977 38.5504 13.4182 38.5504C12.9061 38.5504 12.3988 38.5205 11.9023 38.4612C14.7145 40.2658 18.0571 41.3179 21.6473 41.3179C33.3415 41.3179 39.7367 31.6303 39.7367 23.2281C39.7367 22.9526 39.7305 22.6781 39.7182 22.4059C40.9614 21.5098 42.0391 20.3904 42.8911 19.1154Z" fill="#F1F2F2"/>
</g>
<defs>
<clipPath id="clip0_67_236">
<rect width="53.197" height="53.197" fill="white"/>
</clipPath>
</defs>
</svg>
