<svg width="50" height="50" viewBox="0 0 50 50" fill="none" xmlns="http://www.w3.org/2000/svg">
<rect width="50" height="50" rx="25" fill="#14F371"/>
<path fill-rule="evenodd" clip-rule="evenodd" d="M23.7736 25.7979C22.9943 25.1219 22.129 24.1742 21.7538 23.3354C21.6961 23.2273 21.5808 22.9564 21.7538 22.7401C22.1002 22.3071 22.1578 22.28 22.5326 21.874C22.7925 21.5761 22.9943 21.3057 22.9078 21.0619L21.6096 17.8955C21.4938 17.6787 21.1479 17.6517 20.7438 17.6247C20.3974 17.6247 20.0227 17.6247 19.7627 17.6787C19.1857 17.8684 18.0029 19.33 17.8587 20.3854C17.5411 22.6855 19.7627 25.7438 21.9844 27.6383C24.2065 29.56 27.6399 31.3735 30.0633 30.8589C31.1885 30.6155 32.6318 29.3978 32.7471 28.829C32.8047 28.5857 32.7759 28.2341 32.7182 27.9088C32.6894 27.5302 32.6029 27.2598 32.3713 27.1516L29.429 25.879C29.1686 25.7437 28.9092 25.8519 28.6497 26.1503C28.3327 26.5558 28.1875 26.7181 27.8128 27.1516C27.611 27.395 27.4669 27.5572 27.2362 27.5843C26.9758 27.6383 26.6299 27.5032 26.5723 27.5032C25.6488 27.2058 24.5812 26.4748 23.7736 25.7979ZM14.0789 35.5143L15.7524 31.5358C13.9055 29.533 12.7803 26.9075 12.7803 24.0389C12.7803 17.7062 18.2623 12.5907 25.0146 12.5907C31.766 12.5907 37.2191 17.7062 37.2191 24.0389C37.2191 30.3721 31.766 35.5142 25.0146 35.5142C22.302 35.5142 19.8203 34.7021 17.8011 33.2951L14.0789 35.5143ZM12.0303 31.6169L9.72217 40.2778L17.974 36.759C20.0803 37.7874 22.4749 38.3832 25.0146 38.3832C33.4389 38.3832 40.2777 31.9684 40.2777 24.039C40.2777 16.1366 33.4389 9.72223 25.0146 9.72223C16.5601 9.72223 9.72217 16.1366 9.72217 24.0389C9.72217 26.8264 10.5875 29.4249 12.0303 31.6169Z" fill="#FCFFFE"/>
</svg>
